<svg width="29" height="26" viewBox="0 0 29 26" fill="none" xmlns="http://www.w3.org/2000/svg">
<path d="M9.33142 16.25C9.33142 18.17 10.9114 19.75 12.8314 19.75C14.7514 19.75 16.3314 18.17 16.3314 16.25" stroke="#202020" stroke-width="1.5" stroke-miterlimit="10" stroke-linecap="round" stroke-linejoin="round"/>
<path d="M9.64142 4L6.02142 7.63" stroke="#202020" stroke-width="1.5" stroke-miterlimit="10" stroke-linecap="round" stroke-linejoin="round"/>
<path d="M16.0214 4L19.6414 7.63" stroke="#202020" stroke-width="1.5" stroke-miterlimit="10" stroke-linecap="round" stroke-linejoin="round"/>
<path d="M2.83142 9.85C2.83142 8 3.82142 7.85 5.05142 7.85H20.6114C21.8414 7.85 22.8314 8 22.8314 9.85C22.8314 12 21.8414 11.85 20.6114 11.85H5.05142C3.82142 11.85 2.83142 12 2.83142 9.85Z" stroke="#202020" stroke-width="1.5"/>
<path d="M4.33142 12L5.74142 20.64C6.06142 22.58 6.83142 24 9.69142 24H15.7214C18.8314 24 19.2914 22.64 19.6514 20.76L21.3314 12" stroke="#202020" stroke-width="1.5" stroke-linecap="round"/>
<circle cx="21.5" cy="7.5" r="7.5" fill="#FF6E2E"/>
<path d="M20.0576 8.83496H20.8096C21.0505 8.83496 21.249 8.79427 21.4053 8.71289C21.5615 8.62826 21.6771 8.51107 21.752 8.36133C21.8301 8.20833 21.8691 8.03092 21.8691 7.8291C21.8691 7.64681 21.8333 7.48568 21.7617 7.3457C21.6934 7.20247 21.5876 7.0918 21.4443 7.01367C21.3011 6.93229 21.1204 6.8916 20.9023 6.8916C20.7298 6.8916 20.5703 6.92578 20.4238 6.99414C20.2773 7.0625 20.1602 7.15853 20.0723 7.28223C19.9844 7.40592 19.9404 7.55566 19.9404 7.73145H18.5293C18.5293 7.34082 18.6335 7.00065 18.8418 6.71094C19.0534 6.42122 19.3366 6.19499 19.6914 6.03223C20.0462 5.86947 20.4368 5.78809 20.8633 5.78809C21.3451 5.78809 21.7666 5.86621 22.1279 6.02246C22.4893 6.17546 22.7708 6.40169 22.9727 6.70117C23.1745 7.00065 23.2754 7.37174 23.2754 7.81445C23.2754 8.03906 23.2233 8.25716 23.1191 8.46875C23.015 8.67708 22.8652 8.86589 22.6699 9.03516C22.4779 9.20117 22.2435 9.33464 21.9668 9.43555C21.6901 9.5332 21.3792 9.58203 21.0342 9.58203H20.0576V8.83496ZM20.0576 9.9043V9.17676H21.0342C21.4215 9.17676 21.7617 9.2207 22.0547 9.30859C22.3477 9.39648 22.5934 9.52344 22.792 9.68945C22.9906 9.85221 23.1403 10.0459 23.2412 10.2705C23.3421 10.4919 23.3926 10.7376 23.3926 11.0078C23.3926 11.3398 23.3291 11.6361 23.2021 11.8965C23.0752 12.1536 22.8962 12.3717 22.665 12.5508C22.4372 12.7298 22.1702 12.8665 21.8643 12.9609C21.5583 13.0521 21.2246 13.0977 20.8633 13.0977C20.5638 13.0977 20.2692 13.057 19.9795 12.9756C19.693 12.891 19.4326 12.7656 19.1982 12.5996C18.9671 12.4303 18.7816 12.2188 18.6416 11.9648C18.5049 11.7077 18.4365 11.4033 18.4365 11.0518H19.8477C19.8477 11.234 19.8932 11.3968 19.9844 11.54C20.0755 11.6833 20.2008 11.7956 20.3604 11.877C20.5231 11.9583 20.7038 11.999 20.9023 11.999C21.127 11.999 21.319 11.9583 21.4785 11.877C21.6413 11.7923 21.765 11.6751 21.8496 11.5254C21.9375 11.3724 21.9814 11.195 21.9814 10.9932C21.9814 10.7327 21.9342 10.5244 21.8398 10.3682C21.7454 10.2087 21.6104 10.0915 21.4346 10.0166C21.2588 9.94173 21.0505 9.9043 20.8096 9.9043H20.0576Z" fill="white"/>
</svg>
