<svg width="17" height="16" viewBox="0 0 17 16" fill="none" xmlns="http://www.w3.org/2000/svg">
<path d="M13.4028 16C12.0161 16 10.7659 15.1647 10.2352 13.8835C9.70455 12.6023 9.99789 11.1276 10.9785 10.1471C11.959 9.1665 13.4337 8.87316 14.7149 9.40384C15.996 9.93452 16.8314 11.1847 16.8314 12.5714C16.8314 13.4807 16.4702 14.3528 15.8272 14.9958C15.1842 15.6388 14.3121 16 13.4028 16ZM4.25996 16C2.36641 16 0.83139 14.465 0.83139 12.5714C0.83139 10.6779 2.36641 9.14286 4.25996 9.14286C6.15351 9.14286 7.68853 10.6779 7.68853 12.5714C7.68853 13.4807 7.32731 14.3528 6.68433 14.9958C6.04135 15.6388 5.16928 16 4.25996 16ZM13.4028 6.85714C11.5093 6.85714 9.97425 5.32212 9.97425 3.42857C9.97425 1.53502 11.5093 0 13.4028 0C15.2964 0 16.8314 1.53502 16.8314 3.42857C16.8314 5.32212 15.2964 6.85714 13.4028 6.85714ZM4.25996 6.85714C2.36641 6.85714 0.83139 5.32212 0.83139 3.42857C0.83139 1.53502 2.36641 0 4.25996 0C6.15351 0 7.68853 1.53502 7.68853 3.42857C7.68853 4.33789 7.32731 5.20996 6.68433 5.85294C6.04135 6.49592 5.16928 6.85714 4.25996 6.85714Z" fill="#09051C"/>
</svg>
