<svg width="24" height="20" viewBox="0 0 24 20" fill="none" xmlns="http://www.w3.org/2000/svg">
<path fill-rule="evenodd" clip-rule="evenodd" d="M13.8456 5.5463H1.02778C0.460152 5.5463 0 5.08614 0 4.51852C0 3.95089 0.460152 3.49074 1.02778 3.49074H13.8456C14.2929 1.90899 15.7472 0.75 17.4722 0.75C19.1972 0.75 20.6515 1.90899 21.0989 3.49074H22.9537C23.5213 3.49074 23.9815 3.95089 23.9815 4.51852C23.9815 5.08614 23.5213 5.5463 22.9537 5.5463H21.0989C20.6515 7.12805 19.1972 8.28704 17.4722 8.28704C15.7472 8.28704 14.2929 7.12805 13.8456 5.5463ZM15.7593 4.51852C15.7593 3.57248 16.5262 2.80556 17.4722 2.80556C18.4183 2.80556 19.1852 3.57248 19.1852 4.51852C19.1852 5.46456 18.4183 6.23148 17.4722 6.23148C16.5262 6.23148 15.7593 5.46456 15.7593 4.51852Z" fill="#FF6E2E"/>
<path fill-rule="evenodd" clip-rule="evenodd" d="M10.1359 16.5093H22.9537C23.5213 16.5093 23.9815 16.0491 23.9815 15.4815C23.9815 14.9139 23.5213 14.4537 22.9537 14.4537H10.1359C9.68855 12.872 8.23425 11.713 6.50926 11.713C4.78427 11.713 3.32997 12.872 2.8826 14.4537H1.02778C0.460152 14.4537 0 14.9139 0 15.4815C0 16.0491 0.460152 16.5093 1.02778 16.5093H2.8826C3.32997 18.091 4.78427 19.25 6.50926 19.25C8.23425 19.25 9.68855 18.091 10.1359 16.5093ZM4.7963 15.4815C4.7963 14.5354 5.56322 13.7685 6.50926 13.7685C7.4553 13.7685 8.22222 14.5354 8.22222 15.4815C8.22222 16.4275 7.4553 17.1944 6.50926 17.1944C5.56322 17.1944 4.7963 16.4275 4.7963 15.4815Z" fill="#FF6E2E"/>
</svg>
