<svg width="24" height="24" viewBox="0 0 24 24" fill="none" xmlns="http://www.w3.org/2000/svg">
<path d="M23.121 9.05483L15.536 1.46883C14.5973 0.532817 13.3257 0.00720215 12 0.00720215C10.6743 0.00720215 9.40277 0.532817 8.46401 1.46883L0.879012 9.05483C0.599437 9.33261 0.377782 9.66313 0.226895 10.0272C0.0760072 10.3913 -0.0011104 10.7817 1.20795e-05 11.1758V20.9928C1.20795e-05 21.7885 0.316083 22.5515 0.878692 23.1141C1.4413 23.6768 2.20436 23.9928 3.00001 23.9928H21C21.7957 23.9928 22.5587 23.6768 23.1213 23.1141C23.6839 22.5515 24 21.7885 24 20.9928V11.1758C24.0011 10.7817 23.924 10.3913 23.7731 10.0272C23.6222 9.66313 23.4006 9.33261 23.121 9.05483ZM15 21.9928H9.00001V18.0588C9.00001 17.2632 9.31608 16.5001 9.87869 15.9375C10.4413 15.3749 11.2044 15.0588 12 15.0588C12.7957 15.0588 13.5587 15.3749 14.1213 15.9375C14.6839 16.5001 15 17.2632 15 18.0588V21.9928ZM22 20.9928C22 21.258 21.8947 21.5124 21.7071 21.6999C21.5196 21.8875 21.2652 21.9928 21 21.9928H17V18.0588C17 16.7327 16.4732 15.461 15.5355 14.5233C14.5979 13.5856 13.3261 13.0588 12 13.0588C10.6739 13.0588 9.40216 13.5856 8.46448 14.5233C7.5268 15.461 7.00001 16.7327 7.00001 18.0588V21.9928H3.00001C2.7348 21.9928 2.48044 21.8875 2.29291 21.6999C2.10537 21.5124 2.00001 21.258 2.00001 20.9928V11.1758C2.00094 10.9108 2.1062 10.6568 2.29301 10.4688L9.87801 2.88583C10.4417 2.32476 11.2047 2.00977 12 2.00977C12.7953 2.00977 13.5583 2.32476 14.122 2.88583L21.707 10.4718C21.8931 10.6591 21.9983 10.9118 22 11.1758V20.9928Z" fill="#FF6E2E"/>
</svg>
