<svg width="26" height="26" viewBox="0 0 26 26" fill="none" xmlns="http://www.w3.org/2000/svg">
<path d="M13.1733 11.7758C13.065 11.765 12.935 11.765 12.8158 11.7758C10.2375 11.6891 8.19 9.57663 8.19 6.97663C8.19 4.32246 10.335 2.16663 13 2.16663C15.6542 2.16663 17.81 4.32246 17.81 6.97663C17.7992 9.57663 15.7517 11.6891 13.1733 11.7758Z" stroke="#868E96" stroke-width="1.5" stroke-linecap="round" stroke-linejoin="round"/>
<path d="M7.75666 15.7733C5.13499 17.5283 5.13499 20.3883 7.75666 22.1324C10.7358 24.1258 15.6217 24.1258 18.6008 22.1324C21.2225 20.3774 21.2225 17.5174 18.6008 15.7733C15.6325 13.7908 10.7467 13.7908 7.75666 15.7733Z" stroke="#868E96" stroke-width="1.5" stroke-linecap="round" stroke-linejoin="round"/>
</svg>
